<?xml version="1.0" encoding="UTF-8" standalone="no"?>
<svg
   xmlns:dc="http://purl.org/dc/elements/1.1/"
   xmlns:cc="http://creativecommons.org/ns#"
   xmlns:rdf="http://www.w3.org/1999/02/22-rdf-syntax-ns#"
   xmlns:svg="http://www.w3.org/2000/svg"
   xmlns="http://www.w3.org/2000/svg"
   viewBox="0 0 838.13733 838.13733"
   height="838.13733"
   width="838.13733"
   xml:space="preserve"
   id="svg2"
   version="1.1"><metadata
     id="metadata8"><rdf:RDF><cc:Work
         rdf:about=""><dc:format>image/svg+xml</dc:format><dc:type
           rdf:resource="http://purl.org/dc/dcmitype/StillImage" /></cc:Work></rdf:RDF></metadata><defs
     id="defs6"><clipPath
       id="clipPath44"
       clipPathUnits="userSpaceOnUse"><path
         id="path42"
         d="M -85.04042,85.04042 V -56.69362 H 170.08086 V 85.04042 Z" /></clipPath><clipPath
       id="clipPath80"
       clipPathUnits="userSpaceOnUse"><path
         id="path78"
         d="M 0,0 H 18.028198 V 21.69375 H 0 Z" /></clipPath></defs><g
     transform="matrix(1.3333333,0,0,-1.3333333,0,838.13733)"
     id="g10"><g
       transform="translate(314.302,314.302)"
       id="g12"><g
         id="g14"><g
           id="g16"><g
             id="g18"><path
               id="path20"
               style="fill:#e0e3e4;fill-opacity:1;fill-rule:nonzero;stroke:#32414b;stroke-width:4.98137999;stroke-linecap:butt;stroke-linejoin:miter;stroke-miterlimit:10;stroke-dasharray:none;stroke-opacity:1"
               d="M 311.81502,0 C 311.81502,172.21289 172.21289,311.81502 0,311.81502 -172.21289,311.81502 -311.81502,172.21289 -311.81502,0 c 0,-172.21289 139.60213,-311.81502 311.81502,-311.81502 172.21289,0 311.81502,139.60213 311.81502,311.81502 z" /></g><g
             id="g22"><g
               transform="translate(-177.365,-228.271)"
               id="g24"><g
                 id="g26"><g
                   transform="translate(134.845,283.664)"
                   id="g28"><g
                     id="g30"><g
                       id="g32"><g
                         id="g34"><path
                           id="path36"
                           style="fill:#32414b;fill-opacity:1;fill-rule:nonzero;stroke:#32414b;stroke-width:0.3985;stroke-linecap:butt;stroke-linejoin:miter;stroke-miterlimit:10;stroke-dasharray:none;stroke-opacity:1"
                           d="m -99.21382,39.43721 v -263.12869 c 0,-33.01413 26.76248,-59.77662 59.77661,-59.77662 h 163.91484 c 33.01415,0 59.77661,26.76249 59.77661,59.77662 V 39.43721 c 0,33.01413 -26.76246,59.77661 -59.77661,59.77661 H -39.43721 c -33.01413,0 -59.77661,-26.76248 -59.77661,-59.77661 z" /></g><g
                         id="g38"><g
                           clip-path="url(#clipPath44)"
                           id="g40"><g
                             id="g46"><path
                               id="path48"
                               style="fill:none;stroke:#e0e3e4;stroke-width:4.98137999;stroke-linecap:butt;stroke-linejoin:miter;stroke-miterlimit:10;stroke-dasharray:none;stroke-opacity:1"
                               d="m -70.867,11.0904 v -206.43507 c 0,-33.01414 26.76246,-59.77661 59.7766,-59.77661 H 96.13083 c 33.01413,0 59.77661,26.76247 59.77661,59.77661 V 11.0904 c 0,33.01414 -26.76248,59.7766 -59.77661,59.7766 H -11.0904 c -33.01414,0 -59.7766,-26.76246 -59.7766,-59.7766 z" /></g></g></g><g
                         id="g50"><path
                           id="path52"
                           style="fill:none;stroke:#32414b;stroke-width:16.93670082;stroke-linecap:butt;stroke-linejoin:miter;stroke-miterlimit:10;stroke-dasharray:none;stroke-opacity:1"
                           d="m -28.3468,85.04042 c 0,0 39.40419,79.37114 70.867,79.37114 31.4628,0 70.86704,-79.37114 70.86704,-79.37114" /></g><g
                         id="g54"><path
                           id="path56"
                           style="fill:none;stroke:#32414b;stroke-width:16.93670082;stroke-linecap:butt;stroke-linejoin:miter;stroke-miterlimit:10;stroke-dasharray:none;stroke-opacity:1"
                           d="m -8.50412,85.04042 c 0,0 28.37106,68.03217 51.02432,68.03217 22.65326,0 51.02434,-68.03217 51.02434,-68.03217" /></g><g
                         id="g58"><path
                           id="path60"
                           style="fill:#32414b;fill-opacity:1;fill-rule:nonzero;stroke:#32414b;stroke-width:0.3985;stroke-linecap:butt;stroke-linejoin:miter;stroke-miterlimit:10;stroke-dasharray:none;stroke-opacity:1"
                           d="M -134.64734,-80.82977 V -216.8117 c 0,-5.50236 4.46042,-9.96278 9.96277,-9.96278 h 50.9415 c 5.50235,0 9.96277,4.46042 9.96277,9.96278 v 135.98193 c 0,5.50235 -4.46042,9.96277 -9.96277,9.96277 h -50.9415 c -5.50235,0 -9.96277,-4.46042 -9.96277,-9.96277 z" /></g><g
                         id="g62"><path
                           id="path64"
                           style="fill:#32414b;fill-opacity:1;fill-rule:nonzero;stroke:#32414b;stroke-width:0.3985;stroke-linecap:butt;stroke-linejoin:miter;stroke-miterlimit:10;stroke-dasharray:none;stroke-opacity:1"
                           d="M 148.82074,-80.82977 V -216.8117 c 0,-5.50236 4.4604,-9.96278 9.96277,-9.96278 h 50.94148 c 5.50237,0 9.96277,4.46042 9.96277,9.96278 v 135.98193 c 0,5.50235 -4.4604,9.96277 -9.96277,9.96277 h -50.94148 c -5.50237,0 -9.96277,-4.46042 -9.96277,-9.96277 z" /></g><g
                         id="g66"><g
                           transform="translate(-25.086,-230.17)"
                           id="g68"><g
                             id="g70"><g
                               transform="scale(7.5)"
                               id="g72"><g
                                 id="g74"><g
                                   id="g76" /><g
                                   id="g92"><g
                                   id="g90"
                                   clip-path="url(#clipPath80)"><g
                                   id="g88"
                                   transform="matrix(1,0,0,-1,0,21.69375)"><g
                                   id="g86"><path
                                   id="path82"
                                   style="fill:#ee4c2c;fill-opacity:1;fill-rule:nonzero;stroke:none"
                                   d="M 15.395,6.375 13.82,7.949 c 2.625,2.625 2.625,6.903 0,9.528 -2.625,2.625 -6.902,2.625 -9.527,0 -2.625,-2.625 -2.625,-6.903 0,-9.528 L 8.492,3.75 9.02,3.148 V 0 L 2.645,6.375 c -3.528,3.523 -3.528,9.148 0,12.676 3.523,3.523 9.148,3.523 12.675,0 3.598,-3.528 3.598,-9.227 0.075,-12.676 z" /><path
                                   id="path84"
                                   style="fill:#ee4c2c;fill-opacity:1;fill-rule:nonzero;stroke:none"
                                   d="m 13.445,4.727 c 0,0.66 -0.539,1.199 -1.203,1.199 -0.66,0 -1.199,-0.539 -1.199,-1.199 0,-0.665 0.539,-1.204 1.199,-1.204 0.664,0 1.203,0.539 1.203,1.204 z" /></g></g></g></g></g></g></g><g
                             transform="translate(25.086,230.17)"
                             id="g94" /></g></g></g></g><g
                     transform="translate(-134.845,-283.664)"
                     id="g96" /></g></g><g
                 transform="translate(177.365,228.271)"
                 id="g98" /></g></g></g></g></g></g></svg>